<svg width="99" height="47" viewBox="0 0 99 47" fill="none" xmlns="http://www.w3.org/2000/svg">
<path d="M51.6216 23.8593C54.5024 23.8593 56.9018 22.7062 58.5591 20.5237C60.1537 18.425 60.9966 15.4643 60.9966 11.9651C60.9966 8.46585 60.1537 5.50513 58.5591 3.40637C56.9018 1.22579 54.5024 0.0708008 51.6216 0.0708008C48.7408 0.0708008 46.3414 1.22388 44.684 3.40637C43.0895 5.50513 42.2466 8.46585 42.2466 11.9651C42.2466 15.4643 43.0895 18.425 44.684 20.5237C46.3414 22.7062 48.7408 23.8593 51.6216 23.8593ZM51.6216 5.63262C54.0705 5.63262 55.3111 7.76373 55.3111 11.967C55.3111 16.1702 54.0705 18.3013 51.6216 18.3013C49.1727 18.3013 47.9321 16.1702 47.9321 11.967C47.9321 7.76373 49.1727 5.63262 51.6216 5.63262Z" fill="white"/>
<path d="M70.2628 18.3018C68.4818 18.3018 67.4981 17.6549 66.971 16.1403L66.8549 15.8035L61.9268 18.6615L62.0257 18.8993C63.3424 22.0522 66.345 23.8599 70.2628 23.8599C72.5385 23.8599 74.6202 23.1653 76.1272 21.9038C77.7978 20.5034 78.6826 18.5016 78.6826 16.1098C78.6826 10.7554 74.6944 8.35983 70.7404 8.35983H69.241L69.4218 5.88812H77.5676V0.520386H64.094L63.1274 13.9178H70.4227C72.0343 13.9178 72.9971 14.7379 72.9971 16.1098C72.9952 17.5027 72.0001 18.3018 70.2628 18.3018Z" fill="white"/>
<path d="M96.3196 3.40841C95.3873 2.18112 94.219 1.27921 92.8623 0.723596C91.8063 0.289763 90.6341 0.0671387 89.3688 0.0671387V0.0728468C86.4937 0.0766523 84.0981 1.22973 82.4427 3.40651C80.8482 5.50527 80.0052 8.46599 80.0052 11.9652C80.0052 15.4644 80.8482 18.4251 82.4427 20.5239C84.1 22.7045 86.4994 23.8595 89.3802 23.8595C90.5732 23.8595 91.6845 23.6578 92.6929 23.2715C92.672 23.2905 92.6511 23.3115 92.6301 23.3305L92.6187 23.3419C92.5236 23.437 92.4247 23.5303 92.3257 23.6178L92.3143 23.6292C92.2172 23.7244 92.1164 23.8195 92.0156 23.9089L92.0041 23.9203C91.909 24.0155 91.8101 24.1068 91.7111 24.1962L91.6997 24.2058C91.6027 24.3028 91.5018 24.396 91.401 24.4874L91.3895 24.4969C91.2944 24.592 91.1954 24.6853 91.0965 24.7728L91.0851 24.7823C90.9881 24.8774 90.8872 24.9726 90.7864 25.062L90.7749 25.0734C90.6798 25.1686 90.5809 25.2599 90.4819 25.3493L90.4705 25.3588C90.3735 25.454 90.2726 25.5491 90.1718 25.6386L90.1603 25.6481C90.0652 25.7413 89.9663 25.8345 89.8673 25.924L89.8559 25.9335C89.7589 26.0286 89.658 26.1238 89.5572 26.2151L89.5458 26.2246C89.4506 26.3197 89.3517 26.4111 89.2527 26.5005L89.2413 26.51C89.1443 26.6052 89.0434 26.7003 88.9426 26.7897L88.9311 26.7992C88.836 26.8944 88.7371 26.9857 88.6381 27.0752L88.6267 27.0847C88.5297 27.1798 88.4288 27.2749 88.328 27.3644L88.3166 27.3739C88.2214 27.469 88.1225 27.5604 88.0235 27.6498L88.0121 27.6593C87.9151 27.7563 87.8142 27.8496 87.7134 27.9409L87.702 27.9504C87.6068 28.0456 87.5079 28.1369 87.4089 28.2263L87.3975 28.2358C87.3005 28.331 87.1996 28.4261 87.0988 28.5155L87.0874 28.5251C86.9922 28.6202 86.8933 28.7115 86.7943 28.801L86.7829 28.8105C86.6859 28.9075 86.585 29.0027 86.4842 29.0921L86.4728 29.1035C86.3776 29.1987 86.2787 29.29 86.1797 29.3794L86.1683 29.3889C86.0713 29.4841 85.9704 29.5792 85.8696 29.6686L85.8582 29.6801C85.763 29.7752 85.6641 29.8665 85.5651 29.956L85.5537 29.9655C85.4567 30.0625 85.3558 30.1557 85.255 30.2452L85.2436 30.2547C85.1484 30.3498 85.0495 30.4412 84.9505 30.5306L84.9391 30.5401C84.8421 30.6371 84.7412 30.7304 84.6404 30.8217L84.629 30.8331C84.5338 30.9283 84.4349 31.0196 84.3359 31.109L84.3245 31.1186C84.2275 31.2156 84.1266 31.3088 84.0258 31.3983L84.0144 31.4097C83.9192 31.5029 83.8203 31.5961 83.7213 31.6856L83.7099 31.6951C83.6129 31.7921 83.512 31.8854 83.4112 31.9767L83.3998 31.9881C83.3046 32.0814 83.2057 32.1746 83.1067 32.264L83.0953 32.2735C82.9983 32.3706 82.8974 32.4657 82.7966 32.5551L82.7852 32.5666C82.69 32.6598 82.5911 32.753 82.4921 32.8425L82.4807 32.852C82.3837 32.949 82.2828 33.0423 82.182 33.1336L82.1706 33.1431C82.0754 33.2382 81.9765 33.3296 81.8775 33.419L81.8661 33.4285C81.7691 33.5237 81.6683 33.6188 81.5674 33.7101L81.556 33.7196C81.4608 33.8148 81.3619 33.9061 81.263 33.9955L81.2515 34.0051C81.1545 34.1021 81.0536 34.1972 80.9528 34.2867L80.9414 34.2962C80.8462 34.3913 80.7473 34.4827 80.6484 34.5721L80.6369 34.5816C80.5399 34.6786 80.4391 34.7738 80.3382 34.8632L80.3268 34.8727C80.2317 34.9679 80.1327 35.0592 80.0338 35.1486L80.0223 35.1581C79.9253 35.2552 79.8245 35.3503 79.7236 35.4398L79.7122 35.4493C79.6171 35.5444 79.5181 35.6357 79.4192 35.7252L79.4077 35.7347C79.3107 35.8317 79.2099 35.9269 79.109 36.0163L79.0976 36.0258C79.0025 36.1209 78.9035 36.2123 78.8046 36.3017L78.7932 36.3112C78.6961 36.4083 78.5953 36.5034 78.4944 36.5928L78.483 36.6023C78.3879 36.6975 78.2889 36.7907 78.19 36.8783L78.1786 36.8878C78.0815 36.9848 77.9807 37.0799 77.8798 37.1694L77.8684 37.1808C77.7733 37.274 77.6743 37.3673 77.5754 37.4567L77.564 37.4662C77.4669 37.5633 77.3661 37.6584 77.2652 37.7478L77.2538 37.7573C77.1587 37.8525 77.0597 37.9438 76.9608 38.0332L76.9494 38.0428C76.8523 38.1398 76.7515 38.2349 76.6506 38.3244L76.6392 38.3339C76.5441 38.4271 76.4451 38.5204 76.3462 38.6098L76.3348 38.6193C76.2377 38.7163 76.1369 38.8115 76.036 38.9009L76.0246 38.9123C75.9295 39.0056 75.8305 39.0988 75.7316 39.1882L75.7202 39.1977C75.6231 39.2948 75.5223 39.3899 75.4214 39.4794L75.41 39.4889C75.3149 39.584 75.2159 39.6753 75.117 39.7648L75.1056 39.7743C75.0085 39.8713 74.9077 39.9665 74.8068 40.0559L74.7954 40.0654C74.7003 40.1605 74.6013 40.2519 74.5024 40.3413L74.491 40.3508C74.3939 40.4479 74.2931 40.543 74.1922 40.6324L74.1808 40.6439C74.0857 40.7371 73.9867 40.8303 73.8878 40.9198L73.8764 40.9293C73.7774 41.0263 73.6766 41.1214 73.5776 41.2109L73.5662 41.2223C73.4711 41.3155 73.3721 41.4088 73.2732 41.4982L73.2618 41.5077C73.1628 41.6048 73.0639 41.6999 72.963 41.7893L72.9516 41.7988C72.8565 41.894 72.7575 41.9853 72.6586 42.0747L72.6472 42.0843C72.5501 42.1813 72.4493 42.2764 72.3484 42.3659L72.337 42.3754C72.2419 42.4705 72.1429 42.5618 72.044 42.6513L72.0326 42.6608C71.9355 42.7578 71.8347 42.853 71.7338 42.9424L71.7224 42.9538C71.6273 43.049 71.5283 43.1403 71.4294 43.2297L71.418 43.2392C71.319 43.3363 71.2201 43.4314 71.1192 43.5208L71.1078 43.5304C71.0127 43.6255 70.9137 43.7187 70.8148 43.8063L70.8034 43.8158C70.7044 43.9128 70.6055 44.008 70.5047 44.0974L70.4932 44.1088C68.9977 45.5911 67.0778 46.3408 64.7887 46.3408L2.2425 46.3122C1.43382 46.3122 0.775454 45.6539 0.775454 44.8452V25.1305C0.775454 24.4189 1.07229 23.732 1.58984 23.2449L24.7828 1.47519V5.88583H32.628L28.8243 10.7075L30.9744 13.9155H32.1827C33.9199 13.9155 34.917 14.7147 34.917 16.1075C34.917 17.5004 33.9199 18.2995 32.1827 18.2995C30.5368 18.2995 29.5702 17.6336 29.0507 16.138L28.9347 15.8012L24.0065 18.6592L24.1054 18.897C25.4221 22.0499 28.3657 23.8576 32.1846 23.8576C34.4603 23.8576 36.542 23.163 38.049 21.9015C39.7196 20.5011 40.6044 18.4993 40.6044 16.1075C40.6044 13.2286 38.9071 10.8692 36.0415 9.72753L39.712 5.05622V0.518096H39.693V0.512388H25.0682L24.9464 0.514289L24.7828 0.668414L1.24163 22.8167C0.606106 23.4142 0.242676 24.2571 0.242676 25.1305V44.849C0.242676 45.9811 1.16362 46.904 2.29577 46.904L64.842 46.9325C67.2547 46.9325 69.3687 46.1029 70.9556 44.535C71.0603 44.4418 71.163 44.3447 71.2658 44.2439C71.3685 44.1526 71.4694 44.0555 71.5702 43.9585C71.673 43.8652 71.7776 43.7682 71.8804 43.6674C71.9831 43.576 72.084 43.479 72.1848 43.3819C72.2895 43.2887 72.3941 43.1917 72.495 43.0908C72.5977 42.9995 72.6986 42.9024 72.7975 42.8054C72.9022 42.7122 73.0049 42.6151 73.1077 42.5143C73.2104 42.4229 73.3112 42.3259 73.4102 42.2289C73.5129 42.1356 73.6176 42.0386 73.7203 41.9377C73.8231 41.8464 73.9258 41.7494 74.0248 41.6523C74.1275 41.5591 74.2322 41.462 74.3349 41.3612C74.4377 41.2699 74.5404 41.1728 74.6375 41.0758C74.7421 40.9825 74.8449 40.8855 74.9476 40.7847C75.0504 40.6933 75.1512 40.5982 75.2502 40.4992C75.3548 40.406 75.4595 40.309 75.5603 40.2081C75.6631 40.1168 75.7658 40.0197 75.8648 39.9227C75.9694 39.8295 76.0741 39.7305 76.1749 39.6316C76.2777 39.5402 76.3804 39.4432 76.4794 39.3462C76.584 39.2529 76.6868 39.1559 76.7895 39.055C76.8923 38.9637 76.995 38.8667 77.094 38.7696C77.1986 38.6764 77.3014 38.5793 77.4041 38.4785C77.5069 38.3872 77.6077 38.2901 77.7086 38.1931C77.8132 38.0998 77.9179 38.0028 78.0187 37.902C78.1215 37.8106 78.2242 37.7136 78.3232 37.6165C78.4278 37.5233 78.5306 37.4263 78.6333 37.3254C78.7361 37.2341 78.8369 37.137 78.9378 37.04C79.0424 36.9468 79.1452 36.8497 79.2479 36.7489C79.3507 36.6575 79.4515 36.5605 79.5505 36.4635C79.6551 36.3702 79.7598 36.2713 79.8606 36.1723C79.9634 36.081 80.0642 35.984 80.1632 35.8869C80.2678 35.7937 80.3706 35.6966 80.4733 35.5958C80.5761 35.5045 80.6769 35.4074 80.7777 35.3104C80.8824 35.2171 80.9852 35.1201 81.0879 35.0192C81.1907 34.9279 81.2915 34.8328 81.3904 34.7338C81.4951 34.6406 81.5997 34.5416 81.7006 34.4427C81.8033 34.3514 81.9042 34.2562 82.0031 34.1573C82.1078 34.064 82.2124 33.9651 82.3133 33.8662C82.416 33.7748 82.5169 33.6778 82.6177 33.5807C82.7224 33.4875 82.827 33.3886 82.9279 33.2896C83.0306 33.1983 83.1334 33.1012 83.2323 33.0042C83.337 32.911 83.4397 32.8139 83.5425 32.7131C83.6452 32.6217 83.748 32.5247 83.8469 32.4277C83.9516 32.3344 84.0562 32.2355 84.1571 32.1365C84.2598 32.0452 84.3626 31.9482 84.4615 31.8511C84.5662 31.7579 84.6689 31.6608 84.7717 31.56C84.8744 31.4687 84.9772 31.3716 85.0761 31.2746C85.1808 31.1813 85.2835 31.0843 85.3863 30.9834C85.489 30.8921 85.5918 30.7951 85.6907 30.698C85.7954 30.6048 85.8981 30.5078 85.999 30.4069C86.1017 30.3156 86.2045 30.2185 86.3034 30.1196C86.4081 30.0264 86.5127 29.9274 86.6136 29.8285C86.7163 29.7371 86.8191 29.6401 86.918 29.5431C87.0227 29.4498 87.1254 29.3528 87.2282 29.2519C87.3309 29.1606 87.4337 29.0636 87.5326 28.9665C87.6373 28.8733 87.7419 28.7743 87.8409 28.6754C87.9436 28.5841 88.0464 28.487 88.1453 28.39C88.25 28.2967 88.3527 28.1997 88.4555 28.0988C88.5582 28.0075 88.661 27.9105 88.7599 27.8134C88.8646 27.7202 88.9692 27.6212 89.0682 27.5223C89.1709 27.431 89.2737 27.3339 89.3726 27.235C89.4772 27.1417 89.5819 27.0428 89.6808 26.9439C89.7836 26.8525 89.8863 26.7555 89.9853 26.6584C90.0899 26.5652 90.1946 26.4663 90.2954 26.3673C90.3982 26.276 90.5009 26.1789 90.5999 26.0819C90.7045 25.9887 90.8092 25.8897 90.9081 25.7908C91.0109 25.6994 91.1136 25.6024 91.2126 25.5054C91.3172 25.4121 91.4219 25.3132 91.5227 25.2142C91.6255 25.1229 91.7263 25.0278 91.8272 24.9288C91.9318 24.8356 92.0346 24.7385 92.1373 24.6377C92.2401 24.5464 92.3428 24.4493 92.4418 24.3523C92.5464 24.259 92.6511 24.1601 92.75 24.0612C92.8528 23.9698 92.9536 23.8728 93.0545 23.7757C93.1591 23.6825 93.2619 23.5855 93.3646 23.4846C93.4674 23.3933 93.5701 23.2962 93.6691 23.1992C93.7737 23.106 93.8765 23.0089 93.9773 22.9081C94.0801 22.8167 94.1809 22.7216 94.2818 22.6227C94.3864 22.5294 94.4911 22.4305 94.5919 22.3315C94.6947 22.2402 94.7974 22.1432 94.8964 22.0461C94.9173 22.0271 94.9401 22.0062 94.9611 21.9852C95.4672 21.5685 95.9315 21.0852 96.3463 20.5372C97.9408 18.4384 98.7837 15.4777 98.7837 11.9785C98.759 8.466 97.9161 5.50718 96.3196 3.40841ZM89.3821 18.3014C86.9332 18.3014 85.6926 16.1703 85.6926 11.9671C85.6926 7.76387 86.9332 5.63276 89.3821 5.63276C91.831 5.63276 93.0716 7.76387 93.0716 11.9671C93.0716 16.1703 91.831 18.3014 89.3821 18.3014Z" fill="white"/>
<path d="M4.4292 27.509V43.207H13.867V39.2948H8.4707V27.509H4.4292Z" fill="white"/>
<path d="M31.2424 31.4211V27.509H21.2661V43.207H31.3508V39.2948H25.3076V37.2056H30.7039V33.3372H25.3076V31.4211H31.2424Z" fill="white"/>
<path d="M43.1068 27.509L37.7695 43.207H42.1726L42.928 40.8323H48.1111L48.8665 43.207H53.2695L47.9323 27.509H43.1068ZM44.1514 37.0058L45.5195 32.7188L46.8876 37.0058H44.1514Z" fill="white"/>
<path d="M60.3345 27.509V43.207H64.376V38.4576H66.3492C69.4792 38.4576 71.9319 36.0525 71.9319 32.9833C71.9319 29.9141 69.4792 27.509 66.3492 27.509H60.3345ZM67.8904 32.9833C67.8904 33.9385 67.2416 34.6311 66.3492 34.6311H64.376V31.3336H66.3492C67.2416 31.3355 67.8904 32.0281 67.8904 32.9833Z" fill="white"/>
</svg>
