<svg version="1.1" id="SemiBold" xmlns="http://www.w3.org/2000/svg" xmlns:xlink="http://www.w3.org/1999/xlink" x="0px" y="0px"
     width="214.958px" height="73.607px" viewBox="0 0 214.958 73.607" enable-background="new 0 0 214.958 73.607"
     xml:space="preserve">
<path d="M214.958,63.018c0,6.529-4.797,10.59-11.322,10.59H11.821C5.293,73.607,0,68.311,0,61.78V11.824C0,5.295,5.293,0,11.821,0
	h191.814c6.525,0,11.322,5.295,11.322,11.824V63.018L214.958,63.018z"/>
    <g>
	<g>
		<path fill="#FFFFFF" d="M146.901,52.835l-1.613,1.522c-0.373,0.205-0.744,0.442-1.113,0.611c-1.121,0.51-2.262,0.638-3.274,0.638
			c-1.078,0-2.769-0.069-4.491-1.316c-2.396-1.688-3.441-4.587-3.441-7.114c0-5.231,4.259-7.798,7.732-7.798
			c1.215,0,2.461,0.305,3.475,0.945c1.687,1.114,2.123,2.563,2.365,3.34l-7.935,3.205l-2.599,0.202
			c0.842,4.289,3.744,6.784,6.951,6.784c1.602,0,2.791-0.522,3.881-1.063C146.838,52.793,147.058,52.679,146.901,52.835z
			 M142.116,44.302c0.645-0.233,0.979-0.437,0.979-0.905c0-1.349-1.525-2.904-3.346-2.904c-1.349,0-3.879,1.05-3.879,4.695
			c0,0.568,0.067,1.175,0.103,1.78L142.116,44.302z"/>
        <path fill="#FFFFFF" d="M130.314,52.573c0,1.312,0.233,1.516,1.343,1.618c0.578,0.067,1.154,0.099,1.725,0.166l-1.248,0.743
			h-5.946c0.78-1.013,0.914-1.112,0.914-1.787V52.56l-0.013-20.063h-2.627l2.527-1.218h4.826c-1.046,0.604-1.357,0.975-1.493,2.155
			L130.314,52.573z"/>
        <path fill="#FFFFFF" d="M121.092,41.034c0.773,0.637,2.392,1.988,2.392,4.553c0,2.499-1.409,3.678-2.83,4.792
			c-0.437,0.438-0.944,0.915-0.944,1.651c0,0.746,0.51,1.151,0.877,1.453l1.219,0.94c1.482,1.251,2.833,2.398,2.833,4.729
			c0,3.175-3.072,6.375-8.877,6.375c-4.89,0-7.255-2.328-7.255-4.825c0-1.216,0.604-2.937,2.602-4.115
			c2.092-1.278,4.928-1.449,6.443-1.55c-0.473-0.612-1.014-1.253-1.014-2.299c0-0.572,0.172-0.913,0.338-1.315
			c-0.369,0.035-0.742,0.071-1.08,0.071c-3.578,0-5.603-2.67-5.603-5.302c0-1.552,0.708-3.273,2.162-4.521
			c1.924-1.584,4.218-1.856,6.041-1.856h6.954l-2.162,1.221L121.092,41.034L121.092,41.034z M118.7,56.015
			c-0.275-0.036-0.441-0.036-0.775-0.036c-0.307,0-2.129,0.065-3.541,0.54c-0.748,0.272-2.906,1.08-2.906,3.478
			c0,2.393,2.331,4.116,5.938,4.116c3.239,0,4.961-1.553,4.961-3.645C122.374,58.748,121.261,57.84,118.7,56.015z M119.67,49.603
			c0.781-0.778,0.849-1.854,0.849-2.466c0-2.428-1.447-6.207-4.252-6.207c-0.875,0-1.823,0.438-2.36,1.117
			c-0.57,0.703-0.742,1.615-0.742,2.492c0,2.26,1.317,6.008,4.217,6.008C118.227,50.548,119.137,50.137,119.67,49.603z"/>
        <path fill="#FFFFFF" d="M100.17,55.537c-5.364,0-8.234-4.178-8.234-7.959c0-4.419,3.608-8.2,8.74-8.2
			c4.961,0,8.069,3.885,8.069,7.962C108.745,51.322,105.673,55.537,100.17,55.537z M104.39,52.807
			c0.816-1.08,1.014-2.429,1.014-3.742c0-2.973-1.416-8.641-5.601-8.641c-1.113,0-2.234,0.436-3.042,1.146
			c-1.318,1.181-1.553,2.664-1.553,4.12c0,3.334,1.647,8.833,5.737,8.833C102.266,54.523,103.612,53.885,104.39,52.807z"/>
        <path fill="#FFFFFF" d="M82.211,55.537c-5.365,0-8.23-4.178-8.23-7.959c0-4.419,3.609-8.2,8.739-8.2
			c4.958,0,8.062,3.885,8.062,7.962C90.781,51.322,87.715,55.537,82.211,55.537z M86.432,52.807c0.81-1.08,1.012-2.429,1.012-3.742
			c0-2.973-1.42-8.641-5.601-8.641c-1.117,0-2.226,0.436-3.036,1.146c-1.32,1.181-1.554,2.664-1.554,4.12
			c0,3.334,1.654,8.833,5.737,8.833C84.308,54.523,85.652,53.885,86.432,52.807z"/>
        <path fill="#FFFFFF" d="M71.836,54.366l-4.524,1.035c-1.833,0.289-3.479,0.544-5.222,0.544c-8.727,0-12.051-6.424-12.051-11.45
			c0-6.14,4.711-11.831,12.778-11.831c1.707,0,3.35,0.251,4.846,0.658c2.371,0.667,3.479,1.487,4.173,1.969l-2.628,2.496
			L68.1,38.035l0.79-1.26c-1.07-1.045-3.037-2.975-6.77-2.975c-4.991,0-8.757,3.795-8.757,9.333c0,5.949,4.3,11.546,11.194,11.546
			c2.026,0,3.069-0.407,4.016-0.787v-5.101l-4.776,0.257l2.532-1.359h6.703l-0.819,0.789c-0.222,0.188-0.251,0.252-0.313,0.504
			c-0.033,0.288-0.063,1.204-0.063,1.525L71.836,54.366L71.836,54.366z"/>
	</g>
        <g>
		<path fill="#FFFFFF" d="M156.629,52.979v8.596h-1.707V39.703h1.707v2.49c1.111-1.609,3.144-2.886,5.504-2.886
			c4.232,0,7.084,3.211,7.084,8.294c0,5.049-2.852,8.327-7.084,8.327C159.904,55.929,157.909,54.78,156.629,52.979z M167.383,47.602
			c0-3.831-1.997-6.753-5.538-6.753c-2.199,0-4.302,1.729-5.216,3.234v7.001c0.914,1.511,3.017,3.301,5.216,3.301
			C165.386,54.385,167.383,51.438,167.383,47.602z"/>
            <path fill="#FFFFFF" d="M171.547,55.535V33.664h1.707v21.871H171.547z"/>
            <path fill="#FFFFFF" d="M192.409,60.16c0.363,0.162,0.986,0.263,1.383,0.263c1.043,0,1.771-0.427,2.424-1.936l1.244-2.82
			l-6.725-15.964h1.904l5.77,13.834l5.711-13.834h1.932l-8.201,19.313c-0.852,1.989-2.189,2.946-4.029,2.946
			c-0.552,0-1.279-0.099-1.705-0.229L192.409,60.16z"/>
            <path fill="#FFFFFF" d="M187.422,55.487c-0.114-0.549-0.2-1.032-0.264-1.438c-0.053-0.402-0.082-0.814-0.082-1.233
			c-0.586,0.858-1.414,1.574-2.474,2.138c-1.06,0.566-2.065,0.845-3.448,0.845c-1.662,0-2.953-0.408-3.875-1.238
			c-0.918-0.829-1.38-1.952-1.38-3.373c0-1.419,0.669-2.571,2.003-3.452c1.334-0.885,3.059-1.324,5.192-1.324h3.981v-1.968
			c0-1.133-0.388-2.023-1.158-2.67c-0.773-0.646-1.859-0.975-3.269-0.975c-1.287,0-2.331,0.3-3.126,0.882
			c-0.788,0.594-1.186,1.329-1.186,2.217h-1.746l-0.036-0.085c-0.063-1.195,0.483-2.245,1.647-3.15
			c1.156-0.905,2.674-1.36,4.541-1.36c1.86,0,3.366,0.448,4.502,1.343c1.135,0.885,1.703,2.164,1.703,3.836v7.811
			c0,0.562,0.026,1.104,0.098,1.631c0.072,0.529,0.187,1.058,0.34,1.567h-1.965V55.487z M181.364,54.244
			c1.45,0,2.492-0.324,3.559-0.965c1.058-0.638,1.777-1.469,2.154-2.475v-3.04h-4c-1.527,0-2.793,0.338-3.787,1.021
			c-0.998,0.68-1.504,1.503-1.504,2.46c0,0.902,0.32,1.625,0.957,2.172C179.381,53.97,180.252,54.244,181.364,54.244z"/>
	</g>
</g>
    <g>
	<polygon fill="none" points="27.749,46.71 33.225,41.234 33.223,41.234 27.749,46.71 10.271,29.234 10.271,29.234 27.749,46.713
		10.243,64.219 10.243,64.219 27.749,46.713 33.249,52.213 33.252,52.213 	"/>

        <linearGradient id="SVGID_1_" gradientUnits="userSpaceOnUse" x1="991.5396" y1="415.071" x2="968.464" y2="429.5126" gradientTransform="matrix(0.7071 0.7071 0.7071 -0.7071 -970.55 -362.3167)">
		<stop  offset="0" style="stop-color:#D6FFA1"/>
            <stop  offset="0.3264" style="stop-color:#93E2A7"/>
            <stop  offset="1" style="stop-color:#00A3B5"/>
	</linearGradient>
        <path fill="url(#SVGID_1_)" d="M33.223,41.234L11.886,29.502c-0.604-0.331-1.163-0.408-1.615-0.268L27.749,46.71L33.223,41.234z"/>

        <linearGradient id="SVGID_2_" gradientUnits="userSpaceOnUse" x1="978.1255" y1="427.4089" x2="1008.0419" y2="419.5884" gradientTransform="matrix(0.7071 0.7071 0.7071 -0.7071 -970.55 -362.3167)">
		<stop  offset="0" style="stop-color:#FF177B"/>
            <stop  offset="0.6721" style="stop-color:#FFA976"/>
            <stop  offset="1" style="stop-color:#FFEC73"/>
	</linearGradient>
        <path fill="url(#SVGID_2_)" d="M33.252,52.213l7.283-4.005c1.477-0.814,1.477-2.142,0-2.954l-7.311-4.02l-5.476,5.476
		L33.252,52.213z"/>

        <linearGradient id="SVGID_3_" gradientUnits="userSpaceOnUse" x1="994.8257" y1="404.1189" x2="962.3817" y2="423.207" gradientTransform="matrix(0.7071 0.7071 0.7071 -0.7071 -970.55 -362.3167)">
		<stop  offset="0" style="stop-color:#63FFD4"/>
            <stop  offset="0.4854" style="stop-color:#32A0BA"/>
            <stop  offset="0.8349" style="stop-color:#1262A9"/>
            <stop  offset="1" style="stop-color:#064AA2"/>
	</linearGradient>
        <path fill="url(#SVGID_3_)" d="M10.271,29.234c-0.649,0.203-1.069,0.859-1.069,1.854l0.004,31.284c0,0.982,0.407,1.63,1.038,1.846
		L27.75,46.712L10.271,29.234z"/>

        <linearGradient id="SVGID_4_" gradientUnits="userSpaceOnUse" x1="1006.604" y1="419.2722" x2="986.6284" y2="392.9552" gradientTransform="matrix(0.7071 0.7071 0.7071 -0.7071 -970.55 -362.3167)">
		<stop  offset="0" style="stop-color:#FF4521"/>
            <stop  offset="0.3411" style="stop-color:#D43E65"/>
            <stop  offset="0.7935" style="stop-color:#9F36B9"/>
            <stop  offset="1" style="stop-color:#8A33DB"/>
	</linearGradient>
        <path fill="url(#SVGID_4_)" d="M10.243,64.219c0.454,0.154,1.024,0.082,1.643-0.258l21.363-11.748l-5.5-5.5L10.243,64.219z"/>
</g>
    <g>
	<g>
		<path fill="#FFFFFF" d="M49.997,15.723c0-3.361,2.497-5.522,5.603-5.522c2.081,0,3.441,0.992,4.29,2.209l-1.521,0.881
			c-0.576-0.801-1.585-1.425-2.77-1.425c-2.112,0-3.682,1.601-3.682,3.857c0,2.225,1.569,3.856,3.682,3.856
			c1.089,0,2.049-0.496,2.529-0.96v-1.648h-3.201v-1.648h5.058v3.985c-1.04,1.169-2.545,1.952-4.386,1.952
			C52.494,21.26,49.997,19.068,49.997,15.723z"/>
        <path fill="#FFFFFF" d="M62.302,21.053V10.376h7.314v1.649h-5.442v2.753h5.331v1.647h-5.331v2.979h5.442v1.647h-7.314V21.053z"/>
        <path fill="#FFFFFF" d="M74.799,21.053v-9.027h-3.233v-1.649h8.339v1.649h-3.232v9.027H74.799z"/>
        <path fill="#FFFFFF" d="M86.414,21.053V10.376h1.872v10.678H86.414z"/>
        <path fill="#FFFFFF" d="M93.502,21.053v-9.027h-3.233v-1.649h8.339v1.649h-3.232v9.027H93.502z"/>
        <path fill="#FFFFFF" d="M104.652,15.723c0-3.187,2.257-5.522,5.459-5.522c3.185,0,5.458,2.337,5.458,5.522
			c0,3.185-2.273,5.521-5.458,5.521C106.909,21.245,104.652,18.908,104.652,15.723z M113.648,15.723
			c0-2.209-1.394-3.857-3.537-3.857c-2.161,0-3.538,1.648-3.538,3.857c0,2.191,1.377,3.856,3.538,3.856
			C112.256,19.58,113.648,17.915,113.648,15.723z"/>
        <path fill="#FFFFFF" d="M125.2,21.053l-5.57-7.636v7.636h-1.873V10.376h1.922l5.457,7.396v-7.396h1.873v10.678H125.2z"/>
	</g>
</g>
</svg>