<svg width="89" height="70" viewBox="0 0 89 70" fill="none" xmlns="http://www.w3.org/2000/svg">
<path d="M32.116 0.469971C12.25 9.75797 0.381958 27.044 0.381958 46.136C0.381958 59.552 8.63796 69.356 19.99 69.356C29.794 69.356 37.534 62.132 37.534 52.586C37.534 45.362 32.89 39.428 25.924 37.622C17.926 35.816 17.668 35.558 17.668 31.43C17.668 22.4 24.376 13.886 37.276 6.66196L32.116 0.469971ZM82.684 0.469971C62.818 9.75797 50.95 27.044 50.95 46.136C50.95 59.552 59.206 69.356 70.558 69.356C80.362 69.356 88.102 62.132 88.102 52.586C88.102 45.362 83.458 39.428 76.492 37.622C68.494 35.816 68.236 35.558 68.236 31.43C68.236 22.4 74.944 13.886 87.844 6.66196L82.684 0.469971Z" fill="black"/>
</svg>
